<svg width="32" height="32" viewBox="0 0 32 32" fill="none" xmlns="http://www.w3.org/2000/svg">
<path d="M7.99999 29.3333C7.26666 29.3333 6.63888 29.0722 6.11666 28.55C5.59444 28.0278 5.33333 27.4 5.33333 26.6667V5.33332C5.33333 4.59999 5.59444 3.97221 6.11666 3.44999C6.63888 2.92777 7.26666 2.66666 7.99999 2.66666H17.5667C17.9222 2.66666 18.2611 2.73332 18.5833 2.86666C18.9056 2.99999 19.1889 3.18888 19.4333 3.43332L25.9 9.89999C26.1444 10.1444 26.3333 10.4278 26.4667 10.75C26.6 11.0722 26.6667 11.4111 26.6667 11.7667V17.3333C26.6667 17.7111 26.5389 18.0278 26.2833 18.2833C26.0278 18.5389 25.7111 18.6667 25.3333 18.6667C24.9556 18.6667 24.6389 18.5389 24.3833 18.2833C24.1278 18.0278 24 17.7111 24 17.3333V12H18.6667C18.2889 12 17.9722 11.8722 17.7167 11.6167C17.4611 11.3611 17.3333 11.0444 17.3333 10.6667V5.33332H7.99999V26.6667H18.6667C19.0444 26.6667 19.3611 26.7944 19.6167 27.05C19.8722 27.3055 20 27.6222 20 28C20 28.3778 19.8722 28.6944 19.6167 28.95C19.3611 29.2055 19.0444 29.3333 18.6667 29.3333H7.99999ZM25.3333 25.9V27.5333C25.3333 27.9111 25.2056 28.2278 24.95 28.4833C24.6944 28.7389 24.3778 28.8667 24 28.8667C23.6222 28.8667 23.3056 28.7389 23.05 28.4833C22.7944 28.2278 22.6667 27.9111 22.6667 27.5333V22.6667C22.6667 22.2889 22.7944 21.9722 23.05 21.7167C23.3056 21.4611 23.6222 21.3333 24 21.3333H28.8667C29.2444 21.3333 29.5611 21.4611 29.8167 21.7167C30.0722 21.9722 30.2 22.2889 30.2 22.6667C30.2 23.0444 30.0722 23.3611 29.8167 23.6167C29.5611 23.8722 29.2444 24 28.8667 24H27.2L30.2 27C30.4444 27.2444 30.5667 27.55 30.5667 27.9167C30.5667 28.2833 30.4444 28.6 30.2 28.8667C29.9333 29.1333 29.6167 29.2667 29.25 29.2667C28.8833 29.2667 28.5667 29.1333 28.3 28.8667L25.3333 25.9Z" fill="#D4B3FF"/>
</svg>
