<svg width="32" height="32" viewBox="0 0 32 32" fill="none" xmlns="http://www.w3.org/2000/svg">
<g clip-path="url(#clip0_24_38)">
<path d="M22.6667 22.9333L21.4667 21.7333C21.2222 21.4889 20.9111 21.3667 20.5333 21.3667C20.1556 21.3667 19.8444 21.4889 19.6 21.7333C19.3556 21.9778 19.2333 22.2889 19.2333 22.6667C19.2333 23.0444 19.3556 23.3555 19.6 23.6L23.0667 27.0667C23.3333 27.3333 23.6444 27.4667 24 27.4667C24.3556 27.4667 24.6667 27.3333 24.9333 27.0667L28.4 23.6C28.6444 23.3555 28.7667 23.0444 28.7667 22.6667C28.7667 22.2889 28.6444 21.9778 28.4 21.7333C28.1556 21.4889 27.8444 21.3667 27.4667 21.3667C27.0889 21.3667 26.7778 21.4889 26.5333 21.7333L25.3333 22.9333V18.7C25.3333 18.3222 25.2056 18.0055 24.95 17.75C24.6944 17.4944 24.3778 17.3667 24 17.3667C23.6222 17.3667 23.3056 17.4944 23.05 17.75C22.7944 18.0055 22.6667 18.3222 22.6667 18.7V22.9333ZM20 29.3333H28C28.3778 29.3333 28.6944 29.4611 28.95 29.7167C29.2056 29.9722 29.3333 30.2889 29.3333 30.6667C29.3333 31.0444 29.2056 31.3611 28.95 31.6167C28.6944 31.8722 28.3778 32 28 32H20C19.6222 32 19.3056 31.8722 19.05 31.6167C18.7944 31.3611 18.6667 31.0444 18.6667 30.6667C18.6667 30.2889 18.7944 29.9722 19.05 29.7167C19.3056 29.4611 19.6222 29.3333 20 29.3333ZM8 26.6667C7.26667 26.6667 6.63889 26.4055 6.11667 25.8833C5.59445 25.3611 5.33334 24.7333 5.33334 24V5.33332C5.33334 4.59999 5.59445 3.97221 6.11667 3.44999C6.63889 2.92777 7.26667 2.66666 8 2.66666H16.2333C16.5889 2.66666 16.9278 2.73332 17.25 2.86666C17.5722 2.99999 17.8556 3.18888 18.1 3.43332L24.5667 9.89999C24.8111 10.1444 25 10.4278 25.1333 10.75C25.2667 11.0722 25.3333 11.4111 25.3333 11.7667V13.3667C25.3333 13.7444 25.2056 14.0611 24.95 14.3167C24.6944 14.5722 24.3778 14.7 24 14.7C23.6222 14.7 23.3056 14.5722 23.05 14.3167C22.7944 14.0611 22.6667 13.7444 22.6667 13.3667V12H18C17.4444 12 16.9722 11.8055 16.5833 11.4167C16.1944 11.0278 16 10.5555 16 9.99999V5.33332H8V24H14.6667C15.0444 24 15.3611 24.1278 15.6167 24.3833C15.8722 24.6389 16 24.9555 16 25.3333C16 25.7111 15.8722 26.0278 15.6167 26.2833C15.3611 26.5389 15.0444 26.6667 14.6667 26.6667H8Z" fill="#D4B2FF"/>
</g>
<defs>
<clipPath id="clip0_24_38">
<rect width="32" height="32" fill="white"/>
</clipPath>
</defs>
</svg>
