<svg width="32" height="32" viewBox="0 0 32 32" fill="none" xmlns="http://www.w3.org/2000/svg">
<path d="M10.6667 22.9V9.1C10.6667 8.72222 10.8 8.40555 11.0667 8.15C11.3333 7.89444 11.6444 7.76666 12 7.76666C12.1111 7.76666 12.2278 7.78333 12.35 7.81666C12.4722 7.85 12.5889 7.9 12.7 7.96666L23.5667 14.8667C23.7667 15 23.9167 15.1667 24.0167 15.3667C24.1167 15.5667 24.1667 15.7778 24.1667 16C24.1667 16.2222 24.1167 16.4333 24.0167 16.6333C23.9167 16.8333 23.7667 17 23.5667 17.1333L12.7 24.0333C12.5889 24.1 12.4722 24.15 12.35 24.1833C12.2278 24.2167 12.1111 24.2333 12 24.2333C11.6444 24.2333 11.3333 24.1056 11.0667 23.85C10.8 23.5944 10.6667 23.2778 10.6667 22.9ZM13.3333 20.4667L20.3333 16L13.3333 11.5333V20.4667Z" fill="#D4B3FF"/>
</svg>
